<svg id="Layer_1" data-name="Layer 1" xmlns="http://www.w3.org/2000/svg" viewBox="0 0 76.23 80"><defs><style>.cls-1{fill:#fcfbfa;}.cls-2{fill:#252526;}.cls-3{fill:#e0e0e0;}.cls-4{fill:#56555c;}</style></defs><title>Egghead_Logo_2</title><path class="cls-1" d="M38.1,2.93C53.05,2.93,65.17,35.06,65.17,50A27.07,27.07,0,1,1,11,50C11,35.06,23.15,2.93,38.1,2.93Z"/><path class="cls-2" d="M72.42,30.46L61.38,33l1.72,3.39s11-.92,11-0.92Z"/><path class="cls-2" d="M3.78,30.46l11,2.53L13.1,36.38s-11-.92-11-0.92Z"/><path class="cls-3" d="M26.74,27.94a3.44,3.44,0,0,1,3.48,2.9,45.38,45.38,0,0,1,.69,5.69,7.29,7.29,0,0,1-.15,1.59c-0.14-1.38-.33-2.69-0.54-3.83a3.44,3.44,0,0,0-3.48-2.9,94.39,94.39,0,0,0-12.4.94c0.39-1.21.81-2.42,1.25-3.63A93.69,93.69,0,0,1,26.74,27.94Z"/><path class="cls-3" d="M65.12,48.81c-9.75-.5-18.08-3.61-20-4.74-1.47-.7-3.33-2.19-3.87-5.9-0.36,4.09.41,7.82,4.25,9.66C45.83,48,53.18,51.64,65,52.26c0.06-.74.09-1.5,0.09-2.26C65.14,49.62,65.13,49.22,65.12,48.81Z"/><path class="cls-3" d="M11.12,48.81c9.75-.5,18.08-3.61,20-4.74,1.47-.7,3.33-2.19,3.87-5.9,0.36,4.09-.41,7.82-4.25,9.66C30.4,48,23,51.64,11.18,52.26c-0.06-.74-0.09-1.5-0.09-2.26C11.09,49.62,11.1,49.22,11.12,48.81Z"/><path class="cls-3" d="M49.44,27.94A3.44,3.44,0,0,0,46,30.84a45.38,45.38,0,0,0-.69,5.69,7.29,7.29,0,0,0,.15,1.59c0.14-1.38.33-2.69,0.54-3.83a3.44,3.44,0,0,1,3.48-2.9,94.39,94.39,0,0,1,12.4.94c-0.39-1.21-.81-2.42-1.25-3.63A93.69,93.69,0,0,0,49.44,27.94Z"/><path class="cls-4" d="M61.51,25.77c-0.93-.12-1.69-0.21-2.62-0.31l-0.4,0L58.32,25C52.72,12,46.84,7.1,43.84,5.37A11.45,11.45,0,0,0,38.1,3.7a11.45,11.45,0,0,0-5.74,1.67c-7,4-12.07,14.06-14.48,19.67l-0.16.37-0.4,0c-0.94.1-1.7,0.19-2.62,0.31l-1.18.16L14,24.82a64.61,64.61,0,0,1,9.3-16.25C28,2.88,33,0,38.1,0S48.24,2.88,52.93,8.57a64.54,64.54,0,0,1,9.3,16.25l0.45,1.1Z"/><path class="cls-4" d="M65.42,45.93c-0.73,0-1.48,0-2.22-.09l-0.64,0-0.08-.63a83.8,83.8,0,0,0-4.16-16.81l-0.42-1.18,1.25,0.17c0.84,0.11,1.66.24,2.45,0.37l0.45,0.08,0.15,0.43a85.79,85.79,0,0,1,4,16.85L66.3,46Z"/><path class="cls-2" d="M63.57,32.58c-0.42-1.45-.88-2.91-1.37-4.36l-0.15-.43-0.45-.08c-0.79-.13-1.61-0.26-2.45-0.37l-1.25-.17,0.42,1.18c0.44,1.23.85,2.48,1.23,3.72C61.31,32.28,62.53,32.44,63.57,32.58Z"/><path class="cls-4" d="M10.19,45a85.78,85.78,0,0,1,4-16.85l0.15-.43,0.45-.08c0.78-.13,1.61-0.26,2.45-0.37l1.24-.17-0.42,1.18A83.8,83.8,0,0,0,13.91,45l-0.08.63-0.64,0c-0.74,0-1.48.07-2.22,0.09l-0.89,0Z"/><path class="cls-2" d="M16.8,32.06c0.39-1.28.81-2.56,1.26-3.82l0.42-1.18-1.24.17c-0.84.11-1.67,0.24-2.45,0.37l-0.45.08-0.15.43c-0.49,1.44-.94,2.88-1.36,4.33C14.62,32.21,15.27,32.22,16.8,32.06Z"/><path class="cls-4" d="M38.1,80A30,30,0,0,1,10.18,61,30.37,30.37,0,0,1,8.13,48.78l0-.65H8.81c1,0,1.61,0,2.3-.08l0.76,0,0,0.76a26.38,26.38,0,0,0,1.75,10.79,26.3,26.3,0,0,0,43.49,8.68,26.05,26.05,0,0,0,5.54-8.68,26.37,26.37,0,0,0,1.75-10.79l0-.76,0.76,0c0.95,0,1.61.07,2.3,0.08h0.65l0,0.65A30.38,30.38,0,0,1,66,61,30,30,0,0,1,38.1,80Z"/><path class="cls-2" d="M11.83,48.75l0-.76-0.76,0c-0.69,0-1.34.06-2.3,0.08H8.16l0,0.65a31.86,31.86,0,0,0,.08,3.56c1.26,0,2.5-.06,3.69-0.11A28.54,28.54,0,0,1,11.83,48.75Z"/><path class="cls-2" d="M68,52.33a31.83,31.83,0,0,0,.08-3.55l0-.65H67.4c-0.69,0-1.35,0-2.3-.08l-0.76,0,0,0.76a28.54,28.54,0,0,1-.07,3.43Z"/><path class="cls-2" d="M69.09,49a64.32,64.32,0,0,1-16.72-2,40.55,40.55,0,0,1-6.83-2.43H45.49c-4.59-2.2-4.78-6.61-4.35-10.63a3.32,3.32,0,0,0-1.34-3.07,3,3,0,0,0-3.38,0,3.33,3.33,0,0,0-1.34,3.07c0.43,4,.25,8.45-4.35,10.65l-0.05,0A40.67,40.67,0,0,1,23.85,47,64.32,64.32,0,0,1,7.14,49h0a5.06,5.06,0,0,1-4.95-3.79A62.56,62.56,0,0,1,0,32.07a4.65,4.65,0,0,1,2.77-4.4C9.12,24.85,22,23.81,27.44,23.89A7.09,7.09,0,0,1,32.53,26a13.67,13.67,0,0,1,5.58-1.29A13.68,13.68,0,0,1,43.7,26a7.06,7.06,0,0,1,5.09-2.11c3.29,0,17.43.56,24.67,3.79a4.66,4.66,0,0,1,2.77,4.41,62.29,62.29,0,0,1-2.16,13.12A5.06,5.06,0,0,1,69.12,49h0ZM49.47,28.13a3.26,3.26,0,0,0-3.29,2.74,45.5,45.5,0,0,0-.69,5.67c0,2.17.75,3.66,2.31,4.42,5.8,2.59,12.55,3.87,20.62,3.91a1.37,1.37,0,0,0,1.33-1,55.59,55.59,0,0,0,1.92-11.55,1,1,0,0,0-.57-0.91C65.57,28.92,53.77,28.07,49.47,28.13ZM5.13,31.38a1,1,0,0,0-.57.91A55.64,55.64,0,0,0,6.48,43.85a1.36,1.36,0,0,0,1.33,1c8.08,0,14.83-1.32,20.64-3.91,1.55-.76,2.33-2.25,2.3-4.43a45.13,45.13,0,0,0-.69-5.66,3.26,3.26,0,0,0-3.29-2.74C24.24,28.1,11.36,28.61,5.13,31.38Z"/></svg>