<svg viewBox="0 0 171 156" version="1.1" xmlns="http://www.w3.org/2000/svg" xmlns:xlink="http://www.w3.org/1999/xlink" xmlns:sketch="http://www.bohemiancoding.com/sketch/ns">
    <!-- Generator: Sketch 3.3.2 (12043) - http://www.bohemiancoding.com/sketch -->
    <title>Group</title>
    <desc>Created with Sketch.</desc>
    <defs></defs>
    <g id="inputs-outputs" stroke="none" stroke-width="1" fill="none" fill-rule="evenodd" sketch:type="MSPage">
        <g id="Group" sketch:type="MSLayerGroup" transform="translate(-12.000000, -3.000000)">
            <path d="M59,95.5 C57.3431458,95.5 56,96.8431458 56,98.5 C56,100.156854 57.3431458,101.5 59,101.5 C60.6568542,101.5 62,100.156854 62,98.5 C62,96.8431458 60.6568542,95.5 59,95.5 L59,95.5 Z M59,103.5 C56.2385763,103.5 54,101.261424 54,98.5 C54,95.7385763 56.2385763,93.5 59,93.5 C61.7614237,93.5 64,95.7385763 64,98.5 C64,101.261424 61.7614237,103.5 59,103.5 L59,103.5 Z M59,91 C54,91 49.73,94.11 48,98.5 C49.73,102.89 54,106 59,106 C64,106 68.27,102.89 70,98.5 C68.27,94.11 64,91 59,91 L59,91 Z" id="Shape" fill="#67AB83" sketch:type="MSShapeGroup"></path>
            <path d="M95,17 L103,17 C104.104569,17 105,17.8954305 105,19 L105,35 C105,36.1045695 104.104569,37 103,37 L95,37 C93.8954305,37 93,36.1045695 93,35 L93,19 C93,17.8954305 93.8954305,17 95,17 L95,17 Z M95,19 L95,21 L103,21 L103,19 L95,19 L95,19 Z M103,23 L95,23 L95,25 L103,25 L103,23 L103,23 Z M103,33 L101,33 L101,35 L103,35 L103,33 L103,33 Z" id="Shape" fill="#8B8B8B" sketch:type="MSShapeGroup"></path>
            <path d="M138.6875,58 C135.478125,58.4021888 133,61.1600547 133,64.5088919 L138.6875,64.5088919 L138.6875,58 Z M133,69.4336525 C133,73.0601461 135.910149,76 139.5,76 C143.089851,76 146,73.0601461 146,69.4336525 L146,66.1504788 L133,66.1504788 L133,69.4336525 Z M140.3125,58 L140.3125,64.5088919 L146,64.5088919 C146,61.1600547 143.51375,58.4021888 140.3125,58 L140.3125,58 Z" id="Shape" fill="#67AB83" sketch:type="MSShapeGroup"></path>
            <path d="M68,71 L50,71 L50,59 L68,59 L68,71 Z M68,57 L50,57 C48.89,57 48,57.89 48,59 L48,71 C48,72.1045695 48.8954305,73 50,73 L57,73 L57,75 L55,75 L55,77 L63,77 L63,75 L61,75 L61,73 L68,73 C69.1045695,73 70,72.1045695 70,71 L70,59 C70,57.89 69.1,57 68,57 L68,57 Z" id="Shape" fill="#67AB83" sketch:type="MSShapeGroup"></path>
            <path d="M107,137 C107,132.581722 103.418278,129 99,129 C94.581722,129 91,132.581722 91,137 C91,141.418278 94.581722,145 99,145 C101.121732,145 103.156563,144.157145 104.656854,142.656854 C106.157145,141.156563 107,139.121732 107,137 L107,137 Z M109,137 C109,142.522847 104.522847,147 99,147 C96.3478351,147 93.804296,145.946432 91.9289322,144.071068 C90.0535684,142.195704 89,139.652165 89,137 C89,134.347835 90.0535684,131.804296 91.9289322,129.928932 C93.804296,128.053568 96.3478351,127 99,127 C101.652165,127 104.195704,128.053568 106.071068,129.928932 C107.946432,131.804296 109,134.347835 109,137 L109,137 Z M97,134.5 C97,135.3 96.3,136 95.5,136 C94.7,136 94,135.3 94,134.5 C94,133.7 94.7,133 95.5,133 C96.3,133 97,133.7 97,134.5 L97,134.5 Z M104,134.5 C104,135.3 103.3,136 102.5,136 C101.7,136 101,135.3 101,134.5 C101,133.7 101.7,133 102.5,133 C103.3,133 104,133.7 104,134.5 L104,134.5 Z M99,142.23 C97.25,142.23 95.71,141.5 94.81,140.42 L96.23,139 C96.68,139.72 97.75,140.23 99,140.23 C100.25,140.23 101.32,139.72 101.77,139 L103.19,140.42 C102.29,141.5 100.75,142.23 99,142.23 L99,142.23 Z" id="Shape" fill="#9AC572" sketch:type="MSShapeGroup"></path>
            <path d="M59.2629475,50.7749319 L60.5666773,53.6127884 L62.9921343,51.7741645" id="Path-15" stroke="#979797" sketch:type="MSShapeGroup"></path>
            <path d="M82.5144763,136.45468 L85.3746538,135.200677 L83.57864,132.743501" id="Path-16" stroke="#979797" sketch:type="MSShapeGroup"></path>
            <path d="M138.02919,115.721056 L136.72546,112.883199 L134.300003,114.721823" id="Path-17" stroke="#979797" sketch:type="MSShapeGroup"></path>
            <path d="M115.161872,24.8221315 L112.324015,26.1258613 L114.162639,28.5513184" id="Path-18" stroke="#979797" sketch:type="MSShapeGroup"></path>
            <path d="M85.0177633,26.688289 C85.0177633,26.688289 65.7791502,33.3178065 60.9502303,52.9876383" id="Path-19" stroke="#979797" sketch:type="MSShapeGroup"></path>
            <path d="M61.6912179,111.66689 C61.6912179,111.66689 66.4372811,128.146248 84.7586655,135.100516" id="Path-20" stroke="#979797" sketch:type="MSShapeGroup"></path>
            <path d="M113.188709,135.648001 C113.188709,135.648001 129.816854,130.317924 136.750631,113.283064" id="Path-21" stroke="#979797" sketch:type="MSShapeGroup"></path>
            <path d="M138.446822,53.0691597 C138.446822,53.0691597 133.720806,33.5138161 113.124839,26.3305747" id="Path-22" stroke="#979797" sketch:type="MSShapeGroup"></path>
            <path d="M137.081633,87 C138.186202,87 139.081633,87.8954305 139.081633,89 L139.081633,93.5 C139.081633,93.5 141.081633,93.25 141.081633,94.25 C141.081633,94.25 143.081633,94 143.081633,95 C143.081633,95 145.081633,94.75 145.081633,95.75 C145.081633,95.75 147.081633,95.5 147.081633,96.5 L147.081633,100 C147.081633,101 144.081633,106 144.081633,107 L136.081633,107 C136.081633,107 134.081633,100 131.081633,98 C131.081633,98 130.081633,92 135.081633,97 L135.081633,89 C135.081633,87.8954305 135.977063,87 137.081633,87 L137.081633,87 Z" id="Shape" fill="#67AB83" sketch:type="MSShapeGroup"></path>
            <text id="Human" sketch:type="MSTextLayer" font-family="Source Sans Pro" font-size="10" font-weight="normal" sketch:alignment="middle" fill="#7DA25A">
                <tspan x="84.0595918" y="158">Human</tspan>
            </text>
            <text id="Input" sketch:type="MSTextLayer" font-family="Source Sans Pro" font-size="10" font-weight="normal" sketch:alignment="right" fill="#67AB83">
                <tspan x="20.0708163" y="101">Input</tspan>
            </text>
            <text id="Output" sketch:type="MSTextLayer" font-family="Source Sans Pro" font-size="10" font-weight="normal" fill="#67AB83">
                <tspan x="153" y="100.980936">Output</tspan>
            </text>
            <text id="Input" sketch:type="MSTextLayer" font-family="Source Sans Pro" font-size="10" font-weight="normal" fill="#67AB83">
                <tspan x="153" y="70">Input</tspan>
            </text>
            <text id="Output" sketch:type="MSTextLayer" font-family="Source Sans Pro" font-size="10" font-weight="normal" sketch:alignment="right" fill="#67AB83">
                <tspan x="12.17" y="70">Output</tspan>
            </text>
            <text id="Computer" sketch:type="MSTextLayer" font-family="Source Sans Pro" font-size="10" font-weight="normal" sketch:alignment="middle" fill="#747474">
                <tspan x="78.4195918" y="10">Computer</tspan>
            </text>
        </g>
    </g>
</svg>